<svg width="27" height="27" viewBox="0 0 27 27" fill="none" xmlns="http://www.w3.org/2000/svg">
<mask id="mask0_209_16" style="mask-type:alpha" maskUnits="userSpaceOnUse" x="0" y="0" width="27" height="27">
<rect width="27" height="27" fill="#D9D9D9"/>
</mask>
<g mask="url(#mask0_209_16)">
<path d="M5.625 24.75C5.00625 24.75 4.47656 24.5297 4.03594 24.0891C3.59531 23.6484 3.375 23.1188 3.375 22.5V6.75C3.375 6.13125 3.59531 5.60156 4.03594 5.16094C4.47656 4.72031 5.00625 4.5 5.625 4.5H6.75V2.25H9V4.5H18V2.25H20.25V4.5H21.375C21.9938 4.5 22.5234 4.72031 22.9641 5.16094C23.4047 5.60156 23.625 6.13125 23.625 6.75V22.5C23.625 23.1188 23.4047 23.6484 22.9641 24.0891C22.5234 24.5297 21.9938 24.75 21.375 24.75H5.625ZM5.625 22.5H21.375V11.25H5.625V22.5ZM5.625 9H21.375V6.75H5.625V9ZM13.5 15.75C13.1813 15.75 12.9141 15.6422 12.6984 15.4266C12.4828 15.2109 12.375 14.9437 12.375 14.625C12.375 14.3063 12.4828 14.0391 12.6984 13.8234C12.9141 13.6078 13.1813 13.5 13.5 13.5C13.8187 13.5 14.0859 13.6078 14.3016 13.8234C14.5172 14.0391 14.625 14.3063 14.625 14.625C14.625 14.9437 14.5172 15.2109 14.3016 15.4266C14.0859 15.6422 13.8187 15.75 13.5 15.75ZM9 15.75C8.68125 15.75 8.41406 15.6422 8.19844 15.4266C7.98281 15.2109 7.875 14.9437 7.875 14.625C7.875 14.3063 7.98281 14.0391 8.19844 13.8234C8.41406 13.6078 8.68125 13.5 9 13.5C9.31875 13.5 9.58594 13.6078 9.80156 13.8234C10.0172 14.0391 10.125 14.3063 10.125 14.625C10.125 14.9437 10.0172 15.2109 9.80156 15.4266C9.58594 15.6422 9.31875 15.75 9 15.75ZM18 15.75C17.6813 15.75 17.4141 15.6422 17.1984 15.4266C16.9828 15.2109 16.875 14.9437 16.875 14.625C16.875 14.3063 16.9828 14.0391 17.1984 13.8234C17.4141 13.6078 17.6813 13.5 18 13.5C18.3187 13.5 18.5859 13.6078 18.8016 13.8234C19.0172 14.0391 19.125 14.3063 19.125 14.625C19.125 14.9437 19.0172 15.2109 18.8016 15.4266C18.5859 15.6422 18.3187 15.75 18 15.75ZM13.5 20.25C13.1813 20.25 12.9141 20.1422 12.6984 19.9266C12.4828 19.7109 12.375 19.4437 12.375 19.125C12.375 18.8063 12.4828 18.5391 12.6984 18.3234C12.9141 18.1078 13.1813 18 13.5 18C13.8187 18 14.0859 18.1078 14.3016 18.3234C14.5172 18.5391 14.625 18.8063 14.625 19.125C14.625 19.4437 14.5172 19.7109 14.3016 19.9266C14.0859 20.1422 13.8187 20.25 13.5 20.25ZM9 20.25C8.68125 20.25 8.41406 20.1422 8.19844 19.9266C7.98281 19.7109 7.875 19.4437 7.875 19.125C7.875 18.8063 7.98281 18.5391 8.19844 18.3234C8.41406 18.1078 8.68125 18 9 18C9.31875 18 9.58594 18.1078 9.80156 18.3234C10.0172 18.5391 10.125 18.8063 10.125 19.125C10.125 19.4437 10.0172 19.7109 9.80156 19.9266C9.58594 20.1422 9.31875 20.25 9 20.25ZM18 20.25C17.6813 20.25 17.4141 20.1422 17.1984 19.9266C16.9828 19.7109 16.875 19.4437 16.875 19.125C16.875 18.8063 16.9828 18.5391 17.1984 18.3234C17.4141 18.1078 17.6813 18 18 18C18.3187 18 18.5859 18.1078 18.8016 18.3234C19.0172 18.5391 19.125 18.8063 19.125 19.125C19.125 19.4437 19.0172 19.7109 18.8016 19.9266C18.5859 20.1422 18.3187 20.25 18 20.25Z" fill="#577CFF"/>
</g>
</svg>
