<svg width="66" height="65" viewBox="0 0 66 65" fill="none" xmlns="http://www.w3.org/2000/svg">
<g clip-path="url(#clip0_205_3)">
<path d="M56 0H10C4.47715 0 0 4.47715 0 10V55C0 60.5228 4.47715 65 10 65H56C61.5228 65 66 60.5228 66 55V10C66 4.47715 61.5228 0 56 0Z" fill="#F6F8FF"/>
<mask id="mask0_205_3" style="mask-type:alpha" maskUnits="userSpaceOnUse" x="12" y="12" width="42" height="42">
<rect x="12" y="12" width="42" height="42" fill="#D9D9D9"/>
</mask>
<g mask="url(#mask0_205_3)">
<path d="M20.75 26H45.25V22.5H20.75V26ZM20.75 50.5C19.7875 50.5 18.9635 50.1573 18.2781 49.4719C17.5927 48.7865 17.25 47.9625 17.25 47V22.5C17.25 21.5375 17.5927 20.7135 18.2781 20.0281C18.9635 19.3427 19.7875 19 20.75 19H22.5V15.5H26V19H40V15.5H43.5V19H45.25C46.2125 19 47.0365 19.3427 47.7219 20.0281C48.4073 20.7135 48.75 21.5375 48.75 22.5V32.4313C48.1958 32.1688 47.6271 31.95 47.0437 31.775C46.4604 31.6 45.8625 31.4687 45.25 31.3812V29.5H20.75V47H31.775C31.9792 47.6417 32.2198 48.2542 32.4969 48.8375C32.774 49.4208 33.1021 49.975 33.4813 50.5H20.75ZM43.5 52.25C41.0792 52.25 39.0156 51.3969 37.3094 49.6906C35.6031 47.9844 34.75 45.9208 34.75 43.5C34.75 41.0792 35.6031 39.0156 37.3094 37.3094C39.0156 35.6031 41.0792 34.75 43.5 34.75C45.9208 34.75 47.9844 35.6031 49.6906 37.3094C51.3969 39.0156 52.25 41.0792 52.25 43.5C52.25 45.9208 51.3969 47.9844 49.6906 49.6906C47.9844 51.3969 45.9208 52.25 43.5 52.25ZM46.4313 47.6562L47.6562 46.4313L44.375 43.15V38.25H42.625V43.85L46.4313 47.6562Z" fill="#577CFF"/>
</g>
</g>
<defs>
<clipPath id="clip0_205_3">
<rect width="66" height="65" fill="white"/>
</clipPath>
</defs>
</svg>
