<svg width="66" height="65" viewBox="0 0 66 65" fill="none" xmlns="http://www.w3.org/2000/svg">
<g clip-path="url(#clip0_205_3)">
<path d="M56 0H10C4.47715 0 0 4.47715 0 10V55C0 60.5228 4.47715 65 10 65H56C61.5228 65 66 60.5228 66 55V10C66 4.47715 61.5228 0 56 0Z" fill="#F6F8FF"/>
<mask id="mask0_205_3" style="mask-type:alpha" maskUnits="userSpaceOnUse" x="12" y="12" width="42" height="42">
<rect x="12" y="12" width="42" height="42" fill="#D9D9D9"/>
</mask>
<g mask="url(#mask0_205_3)">
<path d="M31.1625 44.1125L24.95 37.9L27.4875 35.3625L31.1625 39.0375L38.5125 31.6875L41.05 34.225L31.1625 44.1125ZM20.75 50.5C19.7875 50.5 18.9635 50.1573 18.2781 49.4719C17.5927 48.7865 17.25 47.9625 17.25 47V22.5C17.25 21.5375 17.5927 20.7135 18.2781 20.0281C18.9635 19.3427 19.7875 19 20.75 19H22.5V15.5H26V19H40V15.5H43.5V19H45.25C46.2125 19 47.0365 19.3427 47.7219 20.0281C48.4073 20.7135 48.75 21.5375 48.75 22.5V47C48.75 47.9625 48.4073 48.7865 47.7219 49.4719C47.0365 50.1573 46.2125 50.5 45.25 50.5H20.75ZM20.75 47H45.25V29.5H20.75V47ZM20.75 26H45.25V22.5H20.75V26Z" fill="#577CFF"/>
</g>
</g>
<defs>
<clipPath id="clip0_205_3">
<rect width="66" height="65" fill="white"/>
</clipPath>
</defs>
</svg>
