<svg width="25" height="25" viewBox="0 0 25 25" fill="none" xmlns="http://www.w3.org/2000/svg">
<mask id="mask0_189_7" style="mask-type:alpha" maskUnits="userSpaceOnUse" x="0" y="0" width="25" height="25">
<rect x="0.309753" y="0.343048" width="24" height="24" fill="#D9D9D9"/>
</mask>
<g mask="url(#mask0_189_7)">
<path d="M9.30975 14.343V7.34305H18.3098C19.4098 7.34305 20.3514 7.73471 21.1348 8.51805C21.9181 9.30138 22.3098 10.243 22.3098 11.343V14.343H9.30975ZM2.30975 17.343V15.343H22.3098V17.343H2.30975ZM5.30975 14.343C4.47642 14.343 3.76809 14.0514 3.18475 13.468C2.60142 12.8847 2.30975 12.1764 2.30975 11.343C2.30975 10.5097 2.60142 9.80138 3.18475 9.21805C3.76809 8.63471 4.47642 8.34305 5.30975 8.34305C6.14309 8.34305 6.85142 8.63471 7.43475 9.21805C8.01809 9.80138 8.30975 10.5097 8.30975 11.343C8.30975 12.1764 8.01809 12.8847 7.43475 13.468C6.85142 14.0514 6.14309 14.343 5.30975 14.343ZM5.30975 12.343C5.59309 12.343 5.83059 12.2472 6.02225 12.0555C6.21392 11.8639 6.30975 11.6264 6.30975 11.343C6.30975 11.0597 6.21392 10.8222 6.02225 10.6305C5.83059 10.4389 5.59309 10.343 5.30975 10.343C5.02642 10.343 4.78892 10.4389 4.59725 10.6305C4.40559 10.8222 4.30975 11.0597 4.30975 11.343C4.30975 11.6264 4.40559 11.8639 4.59725 12.0555C4.78892 12.2472 5.02642 12.343 5.30975 12.343ZM11.3098 12.343H20.3098V11.343C20.3098 10.793 20.1139 10.3222 19.7223 9.93055C19.3306 9.53888 18.8598 9.34305 18.3098 9.34305H11.3098V12.343Z" fill="#1C1B1F"/>
</g>
</svg>
