<svg width="27" height="27" viewBox="0 0 27 27" fill="none" xmlns="http://www.w3.org/2000/svg">
<mask id="mask0_210_52" style="mask-type:alpha" maskUnits="userSpaceOnUse" x="0" y="0" width="27" height="27">
<rect width="27" height="27" fill="#D9D9D9"/>
</mask>
<g mask="url(#mask0_210_52)">
<path d="M10.125 15.75V7.875H20.25C21.4875 7.875 22.5469 8.31563 23.4281 9.19688C24.3094 10.0781 24.75 11.1375 24.75 12.375V15.75H10.125ZM2.25 19.125V16.875H24.75V19.125H2.25ZM5.625 15.75C4.6875 15.75 3.89063 15.4219 3.23438 14.7656C2.57812 14.1094 2.25 13.3125 2.25 12.375C2.25 11.4375 2.57812 10.6406 3.23438 9.98438C3.89063 9.32812 4.6875 9 5.625 9C6.5625 9 7.35937 9.32812 8.01562 9.98438C8.67188 10.6406 9 11.4375 9 12.375C9 13.3125 8.67188 14.1094 8.01562 14.7656C7.35937 15.4219 6.5625 15.75 5.625 15.75ZM5.625 13.5C5.94375 13.5 6.21094 13.3922 6.42656 13.1766C6.64219 12.9609 6.75 12.6937 6.75 12.375C6.75 12.0563 6.64219 11.7891 6.42656 11.5734C6.21094 11.3578 5.94375 11.25 5.625 11.25C5.30625 11.25 5.03906 11.3578 4.82344 11.5734C4.60781 11.7891 4.5 12.0563 4.5 12.375C4.5 12.6937 4.60781 12.9609 4.82344 13.1766C5.03906 13.3922 5.30625 13.5 5.625 13.5ZM12.375 13.5H22.5V12.375C22.5 11.7562 22.2797 11.2266 21.8391 10.7859C21.3984 10.3453 20.8688 10.125 20.25 10.125H12.375V13.5Z" fill="#577CFF"/>
</g>
</svg>
