<svg width="27" height="27" viewBox="0 0 27 27" fill="none" xmlns="http://www.w3.org/2000/svg">
<mask id="mask0_209_28" style="mask-type:alpha" maskUnits="userSpaceOnUse" x="0" y="0" width="27" height="27">
<rect width="27" height="27" fill="#D9D9D9"/>
</mask>
<g mask="url(#mask0_209_28)">
<path d="M6.75 15.75H15.75V13.5H6.75V15.75ZM6.75 12.375H20.25V10.125H6.75V12.375ZM6.75 9H20.25V6.75H6.75V9ZM2.25 24.75V4.5C2.25 3.88125 2.47031 3.35156 2.91094 2.91094C3.35156 2.47031 3.88125 2.25 4.5 2.25H22.5C23.1188 2.25 23.6484 2.47031 24.0891 2.91094C24.5297 3.35156 24.75 3.88125 24.75 4.5V18C24.75 18.6188 24.5297 19.1484 24.0891 19.5891C23.6484 20.0297 23.1188 20.25 22.5 20.25H6.75L2.25 24.75ZM5.79375 18H22.5V4.5H4.5V19.2656L5.79375 18Z" fill="#577CFF"/>
</g>
</svg>
