<svg width="27" height="27" viewBox="0 0 27 27" fill="none" xmlns="http://www.w3.org/2000/svg">
<mask id="mask0_210_40" style="mask-type:alpha" maskUnits="userSpaceOnUse" x="0" y="0" width="27" height="27">
<rect width="27" height="27" fill="#D9D9D9"/>
</mask>
<g mask="url(#mask0_210_40)">
<path d="M18 15.75C17.0625 15.75 16.2656 15.4219 15.6094 14.7656C14.9531 14.1094 14.625 13.3125 14.625 12.375C14.625 11.4375 14.9531 10.6406 15.6094 9.98438C16.2656 9.32812 17.0625 9 18 9C18.9375 9 19.7344 9.32812 20.3906 9.98438C21.0469 10.6406 21.375 11.4375 21.375 12.375C21.375 13.3125 21.0469 14.1094 20.3906 14.7656C19.7344 15.4219 18.9375 15.75 18 15.75ZM11.25 22.5V20.3625C11.25 19.9688 11.3437 19.5938 11.5312 19.2375C11.7188 18.8813 11.9813 18.6 12.3188 18.3938C13.1625 17.8875 14.0578 17.5078 15.0047 17.2547C15.9516 17.0016 16.95 16.875 18 16.875C19.05 16.875 20.0484 17.0016 20.9953 17.2547C21.9422 17.5078 22.8375 17.8875 23.6813 18.3938C24.0188 18.6 24.2812 18.8813 24.4688 19.2375C24.6563 19.5938 24.75 19.9688 24.75 20.3625V22.5H11.25ZM13.6688 20.25H22.3313C21.675 19.875 20.9813 19.5938 20.25 19.4062C19.5187 19.2187 18.7688 19.125 18 19.125C17.2312 19.125 16.4813 19.2187 15.75 19.4062C15.0187 19.5938 14.325 19.875 13.6688 20.25ZM18 13.5C18.3187 13.5 18.5859 13.3922 18.8016 13.1766C19.0172 12.9609 19.125 12.6937 19.125 12.375C19.125 12.0563 19.0172 11.7891 18.8016 11.5734C18.5859 11.3578 18.3187 11.25 18 11.25C17.6813 11.25 17.4141 11.3578 17.1984 11.5734C16.9828 11.7891 16.875 12.0563 16.875 12.375C16.875 12.6937 16.9828 12.9609 17.1984 13.1766C17.4141 13.3922 17.6813 13.5 18 13.5ZM3.375 15.75V13.5H12.375V15.75H3.375ZM3.375 6.75V4.5H16.875V6.75H3.375ZM12.4875 11.25H3.375V9H13.5C13.2375 9.31875 13.0266 9.66563 12.8672 10.0406C12.7078 10.4156 12.5813 10.8188 12.4875 11.25Z" fill="#577CFF"/>
</g>
</svg>
