<svg width="27" height="27" viewBox="0 0 27 27" fill="none" xmlns="http://www.w3.org/2000/svg">
<mask id="mask0_210_46" style="mask-type:alpha" maskUnits="userSpaceOnUse" x="0" y="0" width="27" height="27">
<rect width="27" height="27" fill="#D9D9D9"/>
</mask>
<g mask="url(#mask0_210_46)">
<path d="M1.125 21.375V4.5H3.375V15.75H12.375V6.75H21.375C22.6125 6.75 23.6719 7.19062 24.5531 8.07187C25.4344 8.95312 25.875 10.0125 25.875 11.25V21.375H23.625V18H3.375V21.375H1.125ZM7.875 14.625C6.9375 14.625 6.14063 14.2969 5.48438 13.6406C4.82812 12.9844 4.5 12.1875 4.5 11.25C4.5 10.3125 4.82812 9.51563 5.48438 8.85938C6.14063 8.20312 6.9375 7.875 7.875 7.875C8.8125 7.875 9.60937 8.20312 10.2656 8.85938C10.9219 9.51563 11.25 10.3125 11.25 11.25C11.25 12.1875 10.9219 12.9844 10.2656 13.6406C9.60937 14.2969 8.8125 14.625 7.875 14.625ZM14.625 15.75H23.625V11.25C23.625 10.6312 23.4047 10.1016 22.9641 9.66094C22.5234 9.22031 21.9938 9 21.375 9H14.625V15.75ZM7.875 12.375C8.19375 12.375 8.46094 12.2672 8.67656 12.0516C8.89219 11.8359 9 11.5687 9 11.25C9 10.9313 8.89219 10.6641 8.67656 10.4484C8.46094 10.2328 8.19375 10.125 7.875 10.125C7.55625 10.125 7.28906 10.2328 7.07344 10.4484C6.85781 10.6641 6.75 10.9313 6.75 11.25C6.75 11.5687 6.85781 11.8359 7.07344 12.0516C7.28906 12.2672 7.55625 12.375 7.875 12.375Z" fill="#577CFF"/>
</g>
</svg>
