<svg width="25" height="25" viewBox="0 0 25 25" fill="none" xmlns="http://www.w3.org/2000/svg">
<mask id="mask0_187_16" style="mask-type:alpha" maskUnits="userSpaceOnUse" x="0" y="0" width="25" height="25">
<rect x="0.309753" y="0.343048" width="24" height="24" fill="#D9D9D9"/>
</mask>
<g mask="url(#mask0_187_16)">
<path d="M1.30975 19.343V4.34305H3.30975V14.343H11.3098V6.34305H19.3098C20.4098 6.34305 21.3514 6.73471 22.1348 7.51805C22.9181 8.30138 23.3098 9.24305 23.3098 10.343V19.343H21.3098V16.343H3.30975V19.343H1.30975ZM7.30975 13.343C6.47642 13.343 5.76809 13.0514 5.18475 12.468C4.60142 11.8847 4.30975 11.1764 4.30975 10.343C4.30975 9.50971 4.60142 8.80138 5.18475 8.21805C5.76809 7.63471 6.47642 7.34305 7.30975 7.34305C8.14309 7.34305 8.85142 7.63471 9.43475 8.21805C10.0181 8.80138 10.3098 9.50971 10.3098 10.343C10.3098 11.1764 10.0181 11.8847 9.43475 12.468C8.85142 13.0514 8.14309 13.343 7.30975 13.343ZM13.3098 14.343H21.3098V10.343C21.3098 9.79305 21.1139 9.32221 20.7223 8.93055C20.3306 8.53888 19.8598 8.34305 19.3098 8.34305H13.3098V14.343ZM7.30975 11.343C7.59309 11.343 7.83059 11.2472 8.02225 11.0555C8.21392 10.8639 8.30975 10.6264 8.30975 10.343C8.30975 10.0597 8.21392 9.82221 8.02225 9.63055C7.83059 9.43888 7.59309 9.34305 7.30975 9.34305C7.02642 9.34305 6.78892 9.43888 6.59725 9.63055C6.40559 9.82221 6.30975 10.0597 6.30975 10.343C6.30975 10.6264 6.40559 10.8639 6.59725 11.0555C6.78892 11.2472 7.02642 11.343 7.30975 11.343Z" fill="#1C274C"/>
</g>
</svg>
