<svg width="237" height="60" viewBox="0 0 237 60" fill="none" xmlns="http://www.w3.org/2000/svg">
<mask id="mask0_8_18" style="mask-type:alpha" maskUnits="userSpaceOnUse" x="0" y="5" width="50" height="50">
<rect y="5" width="50" height="50" fill="#D9D9D9"/>
</mask>
<g mask="url(#mask0_8_18)">
<path d="M21.875 40.4167H28.125V33.125H35.4167V26.875H28.125V19.5833H21.875V26.875H14.5833V33.125H21.875V40.4167ZM10.4167 48.75C9.27083 48.75 8.28993 48.342 7.47396 47.526C6.65799 46.7101 6.25 45.7292 6.25 44.5833V15.4167C6.25 14.2708 6.65799 13.2899 7.47396 12.474C8.28993 11.658 9.27083 11.25 10.4167 11.25H39.5833C40.7292 11.25 41.7101 11.658 42.526 12.474C43.342 13.2899 43.75 14.2708 43.75 15.4167V44.5833C43.75 45.7292 43.342 46.7101 42.526 47.526C41.7101 48.342 40.7292 48.75 39.5833 48.75H10.4167Z" fill="#0D6EFD"/>
</g>
<path d="M80.12 24.8C79.6133 23.8667 78.88 23.16 77.92 22.68C76.9867 22.1733 75.88 21.92 74.6 21.92C72.3867 21.92 70.6133 22.6533 69.28 24.12C67.9467 25.56 67.28 27.4933 67.28 29.92C67.28 32.5067 67.9733 34.5333 69.36 36C70.7733 37.44 72.7067 38.16 75.16 38.16C76.84 38.16 78.2533 37.7333 79.4 36.88C80.5733 36.0267 81.4267 34.8 81.96 33.2H73.28V28.16H88.16V34.52C87.6533 36.2267 86.7867 37.8133 85.56 39.28C84.36 40.7467 82.8267 41.9333 80.96 42.84C79.0933 43.7467 76.9867 44.2 74.64 44.2C71.8667 44.2 69.3867 43.6 67.2 42.4C65.04 41.1733 63.3467 39.48 62.12 37.32C60.92 35.16 60.32 32.6933 60.32 29.92C60.32 27.1467 60.92 24.68 62.12 22.52C63.3467 20.3333 65.04 18.64 67.2 17.44C69.36 16.2133 71.8267 15.6 74.6 15.6C77.96 15.6 80.7867 16.4133 83.08 18.04C85.4 19.6667 86.9333 21.92 87.68 24.8H80.12ZM98.7888 21.4V27.08H107.949V32.36H98.7888V38.52H109.149V44H91.9488V15.92H109.149V21.4H98.7888ZM133.789 15.92V21.4H126.349V44H119.509V21.4H112.069V15.92H133.789ZM175.862 15.92L168.542 44H160.262L155.782 25.52L151.142 44H142.862L135.742 15.92H143.062L147.102 36.36L152.102 15.92H159.622L164.422 36.36L168.502 15.92H175.862ZM186.133 21.4V27.08H195.293V32.36H186.133V38.52H196.493V44H179.293V15.92H196.493V21.4H186.133ZM207.773 38.72H216.733V44H200.933V15.92H207.773V38.72ZM226.836 38.72H235.796V44H219.996V15.92H226.836V38.72Z" fill="#0D6EFD"/>
</svg>
